<?xml version="1.0" encoding="UTF-8" standalone="no"?>
<svg
   xmlns:dc="http://purl.org/dc/elements/1.1/"
   xmlns:cc="http://creativecommons.org/ns#"
   xmlns:rdf="http://www.w3.org/1999/02/22-rdf-syntax-ns#"
   xmlns:svg="http://www.w3.org/2000/svg"
   xmlns="http://www.w3.org/2000/svg"
   xmlns:sodipodi="http://sodipodi.sourceforge.net/DTD/sodipodi-0.dtd"
   xmlns:inkscape="http://www.inkscape.org/namespaces/inkscape"
   sodipodi:docname="distanceIcon.svg"
   inkscape:version="1.0 (4035a4fb49, 2020-05-01)"
   id="svg923"
   version="1.1"
   viewBox="0 0 43.116001 27.244254"
   height="27.244253mm"
   width="43.116001mm">
  <defs
     id="defs917">
    <marker
       inkscape:stockid="DotS"
       orient="auto"
       refY="0"
       refX="0"
       id="marker1174"
       style="overflow:visible"
       inkscape:isstock="true">
      <path
         id="path1172"
         d="m -2.5,-1 c 0,2.76 -2.24,5 -5,5 -2.76,0 -5,-2.24 -5,-5 0,-2.76 2.24,-5 5,-5 2.76,0 5,2.24 5,5 z"
         style="fill:#d8d8d8;fill-opacity:1;fill-rule:evenodd;stroke:#d8d8d8;stroke-width:1pt;stroke-opacity:1"
         transform="matrix(0.2,0,0,0.2,1.48,0.2)" />
    </marker>
    <marker
       inkscape:stockid="DotS"
       orient="auto"
       refY="0"
       refX="0"
       id="DotS"
       style="overflow:visible"
       inkscape:isstock="true">
      <path
         id="path963"
         d="m -2.5,-1 c 0,2.76 -2.24,5 -5,5 -2.76,0 -5,-2.24 -5,-5 0,-2.76 2.24,-5 5,-5 2.76,0 5,2.24 5,5 z"
         style="fill:#d8d8d8;fill-opacity:1;fill-rule:evenodd;stroke:#d8d8d8;stroke-width:1pt;stroke-opacity:1"
         transform="matrix(0.2,0,0,0.2,1.48,0.2)" />
    </marker>
    <rect
       id="rect1496"
       height="36.358467"
       width="31.428505"
       y="4670.8965"
       x="447.63577" />
    <rect
       x="447.63577"
       y="4670.8965"
       width="31.428505"
       height="36.358467"
       id="rect1523" />
    <rect
       id="rect1535"
       height="36.358467"
       width="31.428505"
       y="4670.8965"
       x="447.63577" />
    <rect
       x="447.63577"
       y="4670.8965"
       width="31.428505"
       height="36.358467"
       id="rect1537" />
  </defs>
  <sodipodi:namedview
     inkscape:window-maximized="1"
     inkscape:window-y="-8"
     inkscape:window-x="-8"
     inkscape:window-height="705"
     inkscape:window-width="1366"
     showgrid="false"
     inkscape:document-rotation="0"
     inkscape:current-layer="layer1"
     inkscape:document-units="mm"
     inkscape:cy="-12.927249"
     inkscape:cx="-0.56883428"
     inkscape:zoom="1.4"
     inkscape:pageshadow="2"
     inkscape:pageopacity="0.0"
     borderopacity="1.0"
     bordercolor="#666666"
     pagecolor="#ffffff"
     id="base" />
  <metadata
     id="metadata920">
    <rdf:RDF>
      <cc:Work
         rdf:about="">
        <dc:format>image/svg+xml</dc:format>
        <dc:type
           rdf:resource="http://purl.org/dc/dcmitype/StillImage" />
        <dc:title />
      </cc:Work>
    </rdf:RDF>
  </metadata>
  <g
     transform="translate(-352.64712,-194.36885)"
     id="layer1"
     inkscape:groupmode="layer"
     inkscape:label="Layer 1">
    <g
       id="g1484"
       transform="matrix(0.68797691,0,0,0.68797691,100.71843,51.686689)"
       style="fill:#525252;fill-opacity:1">
      <path
         transform="matrix(0.26458333,0,0,0.26458333,364.75571,147.70377)"
         d="m 66.908203,309.61133 a 32.82996,32.82996 0 0 0 -32.816406,32.83008 32.82996,32.82996 0 0 0 32.830078,32.83007 32.82996,32.82996 0 0 0 32.830078,-32.83007 32.82996,32.82996 0 0 0 -32.830078,-32.83008 32.82996,32.82996 0 0 0 -0.01367,0 z m 0.01367,15.91015 a 16.920057,16.920057 0 0 1 16.919922,16.91993 16.920057,16.920057 0 0 1 -16.919922,16.91992 16.920057,16.920057 0 0 1 -16.919922,-16.91992 16.920057,16.920057 0 0 1 16.919922,-16.91993 z"
         style="fill:#525252;fill-opacity:1;stroke:none;stroke-width:2.77071;stroke-linecap:round;stroke-linejoin:round;stroke-miterlimit:4;stroke-dasharray:none;stroke-opacity:1;paint-order:markers stroke fill"
         id="path1464" />
      <path
         id="path1471"
         style="fill:#525252;fill-opacity:1;stroke:none;stroke-width:0.733084;stroke-linecap:round;stroke-linejoin:round;stroke-miterlimit:4;stroke-dasharray:none;stroke-opacity:1;paint-order:markers stroke fill"
         d="m 415.59993,229.62177 a 8.6862601,8.6862601 0 0 0 -8.68268,8.68629 8.6862601,8.6862601 0 0 0 8.68629,8.68629 8.6862601,8.6862601 0 0 0 8.6863,-8.68629 8.6862601,8.6862601 0 0 0 -8.6863,-8.68629 8.6862601,8.6862601 0 0 0 -0.004,0 z m 0.004,4.20956 a 4.476765,4.476765 0 0 1 4.47673,4.47673 4.476765,4.476765 0 0 1 -4.47673,4.47673 4.476765,4.476765 0 0 1 -4.47673,-4.47673 4.476765,4.476765 0 0 1 4.47673,-4.47673 z" />
      <path
         transform="matrix(0.26458333,0,0,0.26458333,364.75571,147.70377)"
         d="m 137.35352,225.61719 c -39.889699,0.65276 -62.270773,19.9752 -80.027348,42.07226 -22.728454,28.28429 -46.972498,7.32513 -51.2656251,43.18555 -4.2931654,35.86038 14.1425781,36.49219 14.1425781,36.49219 1.867848,0 3.735668,0.002 5.603516,0.002 -0.19186,-1.61713 -0.300787,-3.25898 -0.300782,-4.92773 -7.5e-5,-22.86698 18.531502,-41.40846 41.398438,-41.41602 h 0.01758 c 22.873663,-1.1e-4 41.416093,18.54232 41.416013,41.41602 1e-5,1.67621 -0.11113,3.32511 -0.30469,4.94921 14.34445,0.005 28.68876,-0.003 43.03321,-0.002 -0.19341,-1.6234 -0.30274,-3.2718 -0.30274,-4.94726 -4e-5,-22.86698 18.53346,-41.40846 41.40039,-41.41602 h 0.0176 c 22.87366,-1.1e-4 41.41609,18.54232 41.41602,41.41602 0,1.03073 -0.051,2.0487 -0.125,3.06054 2.60932,-2.55988 6.83765,-7.88189 8.20703,-16.69726 2.02031,-13.0057 -1.01021,-25.00042 -10.10157,-31.56641 -9.09138,-6.56602 8.58591,-53.28561 -56.3164,-67.42773 -14.19737,-3.0936 -26.73909,-4.37614 -37.9082,-4.19336 z"
         style="fill:#525252;fill-opacity:1;stroke:none;stroke-width:0.999999px;stroke-linecap:butt;stroke-linejoin:miter;stroke-opacity:1"
         id="path1473" />
    </g>
  </g>
</svg>
