<?xml version="1.0" encoding="UTF-8" standalone="no"?>
<svg
   xmlns:dc="http://purl.org/dc/elements/1.1/"
   xmlns:cc="http://creativecommons.org/ns#"
   xmlns:rdf="http://www.w3.org/1999/02/22-rdf-syntax-ns#"
   xmlns:svg="http://www.w3.org/2000/svg"
   xmlns="http://www.w3.org/2000/svg"
   xmlns:sodipodi="http://sodipodi.sourceforge.net/DTD/sodipodi-0.dtd"
   xmlns:inkscape="http://www.inkscape.org/namespaces/inkscape"
   width="43.297665mm"
   height="43.297665mm"
   viewBox="0 0 43.297664 43.297665"
   version="1.1"
   id="svg923"
   inkscape:version="1.0 (4035a4fb49, 2020-05-01)"
   sodipodi:docname="regionsicon1.svg">
  <defs
     id="defs917">
    <rect
       x="447.63577"
       y="4670.8965"
       width="31.428505"
       height="36.358467"
       id="rect1496" />
    <rect
       id="rect1523"
       height="36.358467"
       width="31.428505"
       y="4670.8965"
       x="447.63577" />
    <rect
       x="447.63577"
       y="4670.8965"
       width="31.428505"
       height="36.358467"
       id="rect1535" />
    <rect
       id="rect1537"
       height="36.358467"
       width="31.428505"
       y="4670.8965"
       x="447.63577" />
  </defs>
  <sodipodi:namedview
     id="base"
     pagecolor="#ffffff"
     bordercolor="#666666"
     borderopacity="1.0"
     inkscape:pageopacity="0.0"
     inkscape:pageshadow="2"
     inkscape:zoom="1.979899"
     inkscape:cx="42.581325"
     inkscape:cy="87.850926"
     inkscape:document-units="mm"
     inkscape:current-layer="layer1"
     inkscape:document-rotation="0"
     showgrid="false"
     inkscape:window-width="1350"
     inkscape:window-height="728"
     inkscape:window-x="0"
     inkscape:window-y="0"
     inkscape:window-maximized="0" />
  <metadata
     id="metadata920">
    <rdf:RDF>
      <cc:Work
         rdf:about="">
        <dc:format>image/svg+xml</dc:format>
        <dc:type
           rdf:resource="http://purl.org/dc/dcmitype/StillImage" />
        <dc:title />
      </cc:Work>
    </rdf:RDF>
  </metadata>
  <g
     inkscape:label="Layer 1"
     inkscape:groupmode="layer"
     id="layer1"
     transform="translate(-361.73785,-147.83717)">
    <path
       id="path1583"
       style="fill:#525252;fill-opacity:1;stroke:none;stroke-width:0.949288;stroke-linecap:round;stroke-linejoin:round;paint-order:markers stroke fill"
       d="m 345.21779,165.29261 c -5.87721,0 -10.64158,4.15804 -10.64159,10.03527 0,5.87722 10.64159,15.49211 10.64159,15.49211 0,0 10.64188,-9.61489 10.64188,-15.49211 -10e-6,-5.87723 -4.76466,-10.03527 -10.64188,-10.03527 z m 0,4.88012 a 4.852136,4.852136 0 0 1 4.8523,4.852 4.852136,4.852136 0 0 1 -4.8523,4.85229 4.852136,4.852136 0 0 1 -4.85199,-4.85229 4.852136,4.852136 0 0 1 4.85199,-4.852 z" />
    <path
       id="path1591"
       style="fill:#727272;fill-opacity:1;stroke:none;stroke-width:0.640099;stroke-linecap:round;stroke-linejoin:round;paint-order:markers stroke fill"
       d="m 326.95209,156.57642 c -3.96298,0 -7.17555,2.80375 -7.17556,6.76673 0,3.96297 7.17556,10.44623 7.17556,10.44623 0,0 7.17574,-6.48326 7.17574,-10.44623 0,-3.96298 -3.21278,-6.76673 -7.17574,-6.76673 z m 0,3.29064 a 3.2717635,3.2717635 0 0 1 3.27186,3.27168 3.2717635,3.2717635 0 0 1 -3.27186,3.27186 3.2717635,3.2717635 0 0 1 -3.27168,-3.27186 3.2717635,3.2717635 0 0 1 3.27168,-3.27168 z" />
    <path
       d="m 343.77205,147.70354 c -2.98178,0 -5.39894,2.10956 -5.39895,5.09134 0,2.98177 5.39895,7.85983 5.39895,7.85983 0,0 5.39909,-4.87806 5.39909,-7.85983 0,-2.98178 -2.41732,-5.09134 -5.39909,-5.09134 z m 0,2.4759 a 2.4617022,2.4617022 0 0 1 2.46178,2.46164 2.4617022,2.4617022 0 0 1 -2.46178,2.46178 2.4617022,2.4617022 0 0 1 -2.46163,-2.46178 2.4617022,2.4617022 0 0 1 2.46163,-2.46164 z"
       style="fill:#999999;fill-opacity:1;stroke:none;stroke-width:0.481616;stroke-linecap:round;stroke-linejoin:round;paint-order:markers stroke fill"
       id="path1589" />
    <rect
       ry="0"
       y="147.83717"
       x="420.53714"
       height="43.297665"
       width="43.297665"
       id="rect34"
       style="fill:#000000;stroke-width:0.750001;stroke-linecap:round;stroke-linejoin:round;paint-order:markers stroke fill" />
    <path
       d="m 381.60704,167.70592 -17.09711,4.5e-4 5.32253,-5.32254 -6.23242,-6.23241 6.45206,-6.45206 6.23197,6.23197 5.32253,-5.32253 z"
       style="fill:#525252;fill-opacity:1;stroke-width:0.296162;stroke-linecap:round;stroke-linejoin:round;paint-order:markers stroke fill"
       id="rect36" />
    <path
       id="path45"
       style="fill:#525252;fill-opacity:1;stroke-width:0.296162;stroke-linecap:round;stroke-linejoin:round;paint-order:markers stroke fill"
       d="m 385.16677,171.26565 -4.5e-4,17.09711 5.32254,-5.32253 6.23241,6.23242 6.45206,-6.45206 -6.23197,-6.23197 5.32253,-5.32253 z" />
    <path
       id="path47"
       style="fill:#525252;fill-opacity:1;stroke-width:0.296162;stroke-linecap:round;stroke-linejoin:round;paint-order:markers stroke fill"
       d="m 381.6066,171.26565 4.5e-4,17.09711 -5.32254,-5.32253 -6.23241,6.23242 -6.45206,-6.45206 6.23197,-6.23197 -5.32253,-5.32253 z" />
    <path
       d="m 385.16633,167.70592 17.09711,4.5e-4 -5.32253,-5.32254 6.23242,-6.23241 -6.45206,-6.45206 -6.23197,6.23197 -5.32253,-5.32253 z"
       style="fill:#525252;fill-opacity:1;stroke-width:0.296162;stroke-linecap:round;stroke-linejoin:round;paint-order:markers stroke fill"
       id="path49" />
  </g>
</svg>
