<?xml version="1.0" encoding="UTF-8" standalone="no"?>
<svg
   xmlns:dc="http://purl.org/dc/elements/1.1/"
   xmlns:cc="http://creativecommons.org/ns#"
   xmlns:rdf="http://www.w3.org/1999/02/22-rdf-syntax-ns#"
   xmlns:svg="http://www.w3.org/2000/svg"
   xmlns="http://www.w3.org/2000/svg"
   xmlns:sodipodi="http://sodipodi.sourceforge.net/DTD/sodipodi-0.dtd"
   xmlns:inkscape="http://www.inkscape.org/namespaces/inkscape"
   sodipodi:docname="userlocation1.svg"
   inkscape:version="1.0 (4035a4fb49, 2020-05-01)"
   id="svg923"
   version="1.1"
   viewBox="0 0 37.150467 55.142094"
   height="55.142094mm"
   width="37.150467mm">
  <defs
     id="defs917">
    <rect
       id="rect1496"
       height="36.358467"
       width="31.428505"
       y="4670.8965"
       x="447.63577" />
    <rect
       x="447.63577"
       y="4670.8965"
       width="31.428505"
       height="36.358467"
       id="rect1523" />
    <rect
       id="rect1535"
       height="36.358467"
       width="31.428505"
       y="4670.8965"
       x="447.63577" />
    <rect
       x="447.63577"
       y="4670.8965"
       width="31.428505"
       height="36.358467"
       id="rect1537" />
  </defs>
  <sodipodi:namedview
     inkscape:window-maximized="0"
     inkscape:window-y="0"
     inkscape:window-x="0"
     inkscape:window-height="728"
     inkscape:window-width="1350"
     showgrid="false"
     inkscape:document-rotation="0"
     inkscape:current-layer="g5985"
     inkscape:document-units="mm"
     inkscape:cy="122.27928"
     inkscape:cx="237.56299"
     inkscape:zoom="0.7"
     inkscape:pageshadow="2"
     inkscape:pageopacity="0.0"
     borderopacity="1.0"
     bordercolor="#666666"
     pagecolor="#ffffff"
     id="base" />
  <metadata
     id="metadata920">
    <rdf:RDF>
      <cc:Work
         rdf:about="">
        <dc:format>image/svg+xml</dc:format>
        <dc:type
           rdf:resource="http://purl.org/dc/dcmitype/StillImage" />
        <dc:title></dc:title>
      </cc:Work>
    </rdf:RDF>
  </metadata>
  <g
     transform="translate(-121.34036,-145.12754)"
     id="layer1"
     inkscape:groupmode="layer"
     inkscape:label="Layer 1">
    <g
       id="g5985"
       transform="matrix(0.65055972,0,0,0.65055972,-164.66168,-2881.81)">
      <path
         sodipodi:nodetypes="scsss"
         d="m 496.72997,4679.7462 c 0,15.7692 -28.55269,57.8352 -28.55269,57.8352 0,0 -28.5527,-42.066 -28.5527,-57.8352 5e-5,-15.7692 12.78352,-26.9258 28.5527,-26.9258 15.76918,0 28.55264,11.1566 28.55269,26.9258 z"
         style="fill:#bf141a;fill-opacity:1;stroke:none;stroke-width:2.54704;stroke-linecap:round;stroke-linejoin:round;paint-order:markers stroke fill"
         id="path1516" />
      <g
         transform="translate(2.2357585)"
         id="g1559">
        <text
           transform="matrix(1.391591,0,0,1.391591,-176.55287,-1831.8939)"
           style="font-style:normal;font-weight:normal;font-size:16.268px;line-height:1.25;font-family:sans-serif;white-space:pre;shape-inside:url(#rect1523);fill:#000000;fill-opacity:0.403226;stroke:none;"
           id="text1521"
           xml:space="preserve"><tspan
             x="447.63672"
             y="4685.2899"><tspan
               style="font-weight:bold;fill:#000000;fill-opacity:0.403226">ME</tspan></tspan></text>
        <text
           xml:space="preserve"
           id="text1494"
           style="font-style:normal;font-weight:normal;font-size:16.268px;line-height:1.25;font-family:sans-serif;white-space:pre;shape-inside:url(#rect1496);fill:#000000;fill-opacity:1;stroke:none;"
           transform="matrix(1.391591,0,0,1.391591,-175.85299,-1833.1116)"><tspan
             x="447.63672"
             y="4685.2899"><tspan
               style="font-weight:bold;fill:#ffffff;fill-opacity:1">ME</tspan></tspan></text>
      </g>
      <path
         id="path1525"
         style="fill:#bf141a;fill-opacity:1;stroke:none;stroke-width:2.54704;stroke-linecap:round;stroke-linejoin:round;paint-order:markers stroke fill"
         d="m 572.32271,4679.7462 c 0,15.7692 -28.55269,57.8352 -28.55269,57.8352 0,0 -28.5527,-42.066 -28.5527,-57.8352 5e-5,-15.7692 12.78352,-26.9258 28.5527,-26.9258 15.76918,0 28.55264,11.1566 28.55269,26.9258 z"
         sodipodi:nodetypes="scsss" />
      <path
         sodipodi:nodetypes="csccsccccccsccsscsc"
         inkscape:connector-curvature="0"
         style="opacity:1;fill:#000000;fill-opacity:1;stroke:none;stroke-width:0.956314;stroke-linecap:butt;stroke-linejoin:miter;stroke-miterlimit:4;stroke-dasharray:none;stroke-dashoffset:0;stroke-opacity:1;paint-order:stroke markers fill"
         d="m 543.72686,4662.9853 v 0 c -5.18825,0.081 -9.35226,4.3089 -9.35428,9.4978 0.005,3.0295 1.45325,5.8754 3.90029,7.6615 0.0169,0.047 0.0181,0.081 -0.0193,0.081 -0.15357,0 -3.99566,3.1218 -4.63142,4.0679 -1.61136,2.3976 -2.01788,3.8815 -2.14179,7.8269 l -0.0992,3.1396 h 24.7777 l -0.0992,-3.1396 c -0.12391,-3.9454 -0.53043,-5.4293 -2.14179,-7.8269 -0.63576,-0.9461 -4.47785,-4.0679 -4.6314,-4.0679 -0.0374,0 -0.0362,-0.034 -0.0193,-0.081 2.44705,-1.7861 3.89582,-4.632 3.9003,-7.6615 -0.002,-5.1889 -4.16601,-9.4168 -9.35427,-9.4978 v 0 c -0.0143,0 -0.0288,0 -0.0431,0 -0.0143,0 -0.0288,0 -0.0432,0 z"
         id="path60" />
      <path
         sodipodi:nodetypes="scsss"
         d="m 649.14794,4679.7462 c 0,15.7692 -28.55269,57.8352 -28.55269,57.8352 0,0 -28.5527,-42.066 -28.5527,-57.8352 5e-5,-15.7692 12.78352,-26.9258 28.5527,-26.9258 15.76918,0 28.55264,11.1566 28.55269,26.9258 z"
         style="fill:#bf141a;fill-opacity:1;stroke:none;stroke-width:2.54704;stroke-linecap:round;stroke-linejoin:round;paint-order:markers stroke fill"
         id="path1545" />
      <g
         transform="translate(-4.57926)"
         id="g1553">
        <path
           sodipodi:nodetypes="csccsccccccsccsscsc"
           inkscape:connector-curvature="0"
           style="opacity:1;fill:#000000;fill-opacity:0.46371;stroke:none;stroke-width:1.00119;stroke-linecap:butt;stroke-linejoin:miter;stroke-miterlimit:4;stroke-dasharray:none;stroke-dashoffset:0;stroke-opacity:1;paint-order:stroke markers fill"
           d="m 625.04277,4662.5239 v 0 c -5.43171,0.084 -9.79112,4.5111 -9.79324,9.9435 0.005,3.1716 1.52144,6.1511 4.08332,8.0211 0.0177,0.049 0.0189,0.084 -0.0202,0.084 -0.16077,0 -4.18315,3.2683 -4.84875,4.2588 -1.68698,2.51 -2.11256,4.0637 -2.24229,8.1941 l -0.10388,3.287 h 25.94043 l -0.10388,-3.287 c -0.12972,-4.1304 -0.55531,-5.6841 -2.2423,-8.1941 -0.66559,-0.9905 -4.68798,-4.2588 -4.84873,-4.2588 -0.0391,0 -0.038,-0.036 -0.0202,-0.084 2.56188,-1.87 4.07864,-4.8495 4.08333,-8.0211 -0.002,-5.4324 -4.36151,-9.8587 -9.79324,-9.9435 v 0 c -0.015,0 -0.0301,0 -0.0451,0 -0.015,0 -0.0302,0 -0.0452,0 z"
           id="path1547" />
        <path
           id="path1549"
           d="m 625.79927,4662.9853 v 0 c -5.18825,0.081 -9.35226,4.3089 -9.35428,9.4978 0.005,3.0295 1.45325,5.8754 3.90029,7.6615 0.0169,0.047 0.0181,0.081 -0.0193,0.081 -0.15357,0 -3.99565,3.1218 -4.63142,4.0679 -1.61136,2.3976 -2.01788,3.8815 -2.14178,7.8269 l -0.0992,3.1396 h 24.7777 l -0.0992,-3.1396 c -0.12391,-3.9454 -0.53042,-5.4293 -2.14179,-7.8269 -0.63576,-0.9461 -4.47785,-4.0679 -4.6314,-4.0679 -0.0374,0 -0.0362,-0.034 -0.0193,-0.081 2.44705,-1.7861 3.89582,-4.632 3.9003,-7.6615 -0.002,-5.1889 -4.16601,-9.4168 -9.35427,-9.4978 v 0 c -0.0143,0 -0.0288,0 -0.0431,0 -0.0143,0 -0.0288,0 -0.0432,0 z"
           style="opacity:1;fill:#ffffff;fill-opacity:1;stroke:none;stroke-width:0.956314;stroke-linecap:butt;stroke-linejoin:miter;stroke-miterlimit:4;stroke-dasharray:none;stroke-dashoffset:0;stroke-opacity:1;paint-order:stroke markers fill"
           inkscape:connector-curvature="0"
           sodipodi:nodetypes="csccsccccccsccsscsc" />
      </g>
    </g>
  </g>
</svg>
